<?xml version="1.0" encoding="utf-8"?>
<!-- Generator: Adobe Illustrator 23.0.3, SVG Export Plug-In . SVG Version: 6.00 Build 0)  -->
<svg version="1.1" xmlns="http://www.w3.org/2000/svg" xmlns:xlink="http://www.w3.org/1999/xlink" x="0px" y="0px"
	 viewBox="0 0 1200 675" style="enable-background:new 0 0 1200 675;" xml:space="preserve">
<style type="text/css">
	.st0{display:none;}
	.st1{fill:none;stroke:#fff;stroke-width:6;stroke-miterlimit:10;}
	.st2{fill:none;stroke:#fff;stroke-width:3;stroke-miterlimit:10;}
	.st3{fill:none;stroke:#fff;stroke-miterlimit:10;}
	.st4{fill:none;stroke:#fff;stroke-width:2;stroke-miterlimit:10;}
	.st5{fill:none;stroke:#fff;stroke-width:5;stroke-miterlimit:10;}
	.st6{fill:none;stroke:#fff;stroke-width:0.75;stroke-miterlimit:10;}
	.st7{fill:none;stroke:#fff;stroke-width:1.5;stroke-miterlimit:10;}
	.st8{fill:none;stroke:#fff;stroke-width:0.5;stroke-miterlimit:10;}
	.st9{fill:none;stroke:#fff;stroke-width:4;stroke-miterlimit:10;}
	#lightning-1{stroke-dasharray: 434; stroke-dashoffset: 434; opacity:1;
	 animation: 5s cubic-bezier(0,1.16,.34,.84) 1s infinite lightningmain;}
	@keyframes lightningmain{
		0%{
			stroke-dashoffset: 434;
			opacity:1;
		}
		3%{
			opacity:1;
		}
		100%{
			stroke-dashoffset: 0;
			opacity:0;
		}
	}
	#lightning-2{stroke-dasharray: 688; stroke-dashoffset: 688; opacity:1;
	 animation: 5s cubic-bezier(0,1.16,.34,.84) 0s infinite lightningsec;}
	@keyframes lightningsec{
		0%{
			stroke-dashoffset: 688;
			opacity:1;
		}
		3%{
			opacity:1;
		}
		100%{
			stroke-dashoffset: 0;
			opacity:0;
		}
	}
	#lightning-3{stroke-dasharray: 644; stroke-dashoffset: 644; opacity:1;
	 animation: 5s cubic-bezier(0,1.16,.34,.84) 1.5s infinite lightningth;}
	@keyframes lightningth{
		0%{
			stroke-dashoffset: 644;
			opacity:1;
		}
		3%{
			opacity:1;
		}
		100%{
			stroke-dashoffset: 0;
			opacity:0;
		}
	}
	#lightning-4{stroke-dasharray: 434; stroke-dashoffset: 434; opacity:1;
	 animation: 5s cubic-bezier(0,1.16,.34,.84) 1.8s infinite lightningth;}
	@keyframes lightningth{
		0%{
			stroke-dashoffset: 434;
			opacity:1;
		}
		3%{
			opacity:1;
		}
		100%{
			stroke-dashoffset: 0;
			opacity:0;
		}
	}
	#text-an{stroke-dasharray: 536; stroke-dashoffset: 536; opacity:1;
	 animation: 2s linear 1s text-animation; animation-fill-mode: forwards;}
	@keyframes text-animation{
		0%{
		stroke-width:3;
			stroke-dashoffset: 536;
		}
		100%{
		stroke-width:1;
			stroke-dashoffset: 0;
		}
	}
	#text-an .st4{animation: 1s linear 4s fill-text-animation; animation-fill-mode: forwards; fill:#fff0;}
	@keyframes fill-text-animation{
		0%{
			fill:#fff0;
		}
		100%{
			fill:#fff;
		}
	}
	#gear{animation: 4s linear 5s infinite rotategear;}
	@keyframes rotategear{
		0%{
			transform: rotate(0deg);
		}
		100%{
			transform: rotate(360deg);
		}
	}
</style>
<defs xmlns="http://www.w3.org/2000/svg">
    <filter id="dropshadow" height="135%">
	 <feDropShadow xmlns="http://www.w3.org/2000/svg" flood-opacity="1" flood-color="#94f7ff" stdDeviation="10" dx="0" dy="0"/>
    </filter>
</defs>

<g id="lightning-1" filter="url(#dropshadow)">
	<polyline class="st2" points="183.54,250.57 173.94,252 167.24,257.12 163.35,261.35 152.94,264.35 144.65,264.35 133.88,265.76 
		123.82,268.76 119.24,271.59 115,271.59 112.53,276.53 101.59,285.35 99.29,287.12 99.29,281.82 97.88,279 94.88,275.82 
		89.06,273.88 82.71,272.82 76.71,274.59 72.82,266.82 65.59,267.53 	"/>
	<polyline class="st3" points="173.94,252 168.82,250.57 166.88,247.24 165.47,245.12 162.29,245.12 157.71,248.56 	"/>
	<path id="lightning-3-1" class="st5" d="M201.88,219.88l-2.82,11.29l-4.47,8.94l-6.35,4.94l-4.47,4.47l-1.41,6.59l-2.82,5.65l2.82,8.71l4,5.88
		l-2.12,6.82l-6.59,5.88l-7.29,7.29l-2.12,5.41l5.65,7.53l-4.71,6.35l-0.94,8.47l-3.06,5.65l-3.06,4l1.18,4.71l-0.24,7.76V354
		l-0.94,11.76l-6.35,5.41l-3.06,4.71l-8.47,6.59l-7.76,7.76l-5.18,9.18l-7.29,9.41l-4.24,8.24l-1.41,10.12l3.29,8l-2.12,9.41
		c0,0-3.06,5.65-4,6.59c-0.94,0.94-7.06,10.35-7.06,10.35L104,471.65v7.76v10.82l1.65,2.59l-1.65,9.41l0.94,8.71l1.88,6.12
		l-2.82,7.53l1.41,6.12l2.12,6.35l1.88,3.76l-2.12,8.47l-1.65,7.76l1.88,5.65l3.53,2.82l4.71,2.82l3.06,5.41v5.41l-3.06,7.53
		l1.88,4.47l2.82,9.41"/>
	<polyline class="st4" points="183.54,250.57 174.82,256.41 169.35,259.94 164.76,266.47 161.41,271.94 155.59,275.47 
		155.59,279.53 160,282.53 159.65,288.53 158.94,296.47 152.94,300.53 150.82,307.59 147.82,312.35 148.53,316.76 143.94,319.94 
		140.76,324.35 135.65,330.18 132.47,335.47 131.06,343.59 126.12,347.82 126.12,353.29 124.57,359.65 	"/>
	<polyline class="st3" points="195.62,238.05 203.06,244.24 206.76,250.57 208.88,257.82 215.06,263.82 218.24,268.84 	"/>
	<path class="st4" d="M177.65,289.06L176.76,300v5.11l0.44,9.19l0.44,8.65l1.24,5.12v5.65l-1.06,2.29l3.71,5.29l-2.38,5.12v5.65
		l-8.56,7.59l-4.76,5.65l-10.06,5.88l4.06,8.76l-4.06,10.59l-5.29,9.35l-10.06,6l-10.24,7.94l-8.29,10.59l-3.53,2.76v26.53
		c0,0,2.65,5.82,2.12,6c-0.53,0.18,0,10.06,0,10.06l-5.47,6.53l5.82,9.88l-1.94,9.71l-0.88,4.24l-0.88,5.82l-2.12,7.24l-2.82,9.35
		l-4.06,7.94l2.12,7.59l9.35,4.59c0,0,5.47,5.29,6,5.29s5.82,6.35,5.82,6.35l-1.59,9.18l2.65,5.82"/>
	<path class="st3" d="M179.15,352.06l2.38,7.59v9.71v9.88l-1.19,5.65l5.07,6l4.24,10.59l5.82,10.59l5.12,10.06c0,0-0.71,7.59,0,7.06
		c0.71-0.53,5.65,2.47,5.82,3.18c0.18,0.71,11.47,5.82,11.47,5.82l8.65,6.88l5.82,4.24l7.41,1.59l5.47,4.59l8.29,4.76l10.41,3.35
		l6.18,2.12V471l3.18,7.94l3.71,11.47v7.76l-7.06,7.59l-3.18,6c0,0-5.65,5.82-6.35,6c-0.71,0.18-9.88,7.41-9.88,7.41l-8.29,6.88
		l-7.41,2.29l-4.06,10.24"/>
	<polyline class="st6" points="181.53,363.71 190.18,363.71 195.29,366.35 196.53,370.59 199.53,370.59 201.88,368.29 
		209.24,371.65 214.18,373.06 216.47,383.47 	"/>
	<polyline class="st7" points="120.62,415.4 112.71,420 101.41,416.82 95.76,420 90.47,428.29 80.06,430.41 71.94,429.18 
		65.59,427.06 56.41,432.88 47.76,432.88 43.18,429.18 33.12,430.06 25.35,432.88 19.18,431.47 16.18,425.82 20.94,419.12 
		9.29,421.06 3.12,426.88 	"/>
	<path class="st4" d="M104,476.12l-7.53,1.94l-7.76,2.82l-2.65,8.29l-3,5.29L82,502.24c0,0-1.06,8.47-1.59,9.18
		s-3.35,5.65-3.35,5.65l-3.18,2.29L72.12,522v5.47l-4.94,3.88v5.29l-0.88,4.59L63.82,546l1.94,4.76v4.41l-3,5.82l-4.94,4.59
		l-1.24,4.94v9.35"/>
	<polyline class="st3" points="104.7,508.75 98.59,512.65 94,518.82 94,525.18 91.53,530.47 86.76,532.76 82.88,536.29 
		77.94,541.76 76.53,543.88 75.29,549.35 70.18,556.41 68.06,562.41 65.76,569.29 	"/>
	<polyline class="st4" points="105.65,557.06 103,565.76 98.59,569.29 93.65,573.35 88.71,574.94 83.06,579 80.29,582.88 
		76.71,586.59 	"/>
	<path class="st6" d="M116.35,448.82l-7.53,1.53l-6.47,8.82L96,461.41l-9.06-1.06l-5.88-4l-11.88,1.53l-3.41,3.53v6.71l-3.9,5.18
		c0,0-3.28,3.53-3.75,3.53c-0.47,0-6.82,0.59-6.82,0.59l-9.41,1.88l-5.29,1.41"/>
	<polyline class="st8" points="121.65,435.18 127.29,442.12 128.59,445.88 132.12,449.76 137.53,453.18 144,453.76 148.59,451.41 
		152,453.18 	"/>
	<polyline class="st8" points="150.47,399.88 150.47,405.29 144.82,409.88 141.41,412.94 147.29,415.4 143.18,421.53 146.59,426.35 
		147.88,437.53 	"/>
	<polyline class="st8" points="155.76,390.53 161.88,392.59 168.12,394.71 173.29,398.47 176.82,405.18 178.47,412.35 
		182.47,420.24 188.24,424.82 	"/>
</g>

<g id="lightning-2" filter="url(#dropshadow)">
	<path class="st1" id="first-ani" d="M496.71,7.76l7.41,11.65l-9.18,14.47l-7.06,13.76v11.65l8.12,8.47l5.65,12.35l-9.88,15.53l9.18,7.41
		l3.18,19.41v18c0,0,1.76,9.88,1.76,10.94s-9.18,20.47-9,21.88c0.18,1.41-13.24,16.94-13.24,16.94l-3.53,20.47l-14.82,16.59
		l-15.18,9.18l-10.59,20.12L430.35,276l-4.94,19.41l6.35,16.94c0,0-0.35,15.53-2.12,17.29s3.88,17.65,3.88,19.41
		c0,1.76,2.47,13.76,2.82,16.24c0.35,2.47,6,16.59,6,16.59l-7.06,12.35l4.94,28.24l4.94,20.12c0,0-0.35,20.12-0.71,21.18
		c-0.35,1.06-7.06,24-7.06,24l7.06,18.71l8.47,15.53l8.47,18.71l0.71,11.29l-2.47,17.65l-3.18,20.82c0,0-1.06,23.65-1.06,25.76
		c0,2.12-4.24,20.12-4.24,20.12"/>
	<path id="second-ani" class="st4" d="M487.88,55.06l-10.24,3.53l-2.47,14.12c0,0,1.76,13.06,0,13.76c-1.76,0.71-13.41,18.71-13.41,18.71
		l-9.88,11.29l-15.18,10.59l-15.88,14.47l-10.24,6h-13.06L376,157.41l-11.65,9.53c0,0,0,9.18-2.82,10.24
		c-2.82,1.06-11.29,7.76-13.41,7.76s-10.24-0.35-11.29-0.35c-1.06,0-14.12,2.12-15.18,2.47c-1.06,0.35-10.59,7.76-10.59,7.76
		s-10.59-1.76-11.29,0s-9.88,13.76-9.88,13.76l-5.65,12.35c0,0-3.18,11.29-4.24,11.29s-12,3.53-12,3.53l-10.94,9.35v8.33"/>
	<path class="st2" d="M426.08,297.19l-6.67,9.51l-18,10.24l-11.29,5.12l-7.41,7.24l-7.06,20.12l-9.18,10.24l-6,13.94l-15.53,9.88
		l-3.88,7.06l-6.71,15l-10.94,9.87l-2.47,9.43l-11.29,8.06l-7.41,13.94l-4.59,14.82l-7.76,11.29l-8.82,16.59
		c0,0,4.24,7.76,4.24,8.82c0,1.06-4.24,10.4-4.24,10.4s-2.82,10.78-4.06,11.48s-5.82,17.29-5.82,17.29l-2.47,10.24
		c0,0-9.53,10.94-9.53,12s-6.71,16.94-6.71,16.94l3.53,16.24"/>
	<polyline class="st4" points="343.73,385.68 335.41,385.68 320.94,385.68 301.53,388.24 288.82,396.35 269.76,402.35 
		257.06,402.35 247.53,414.71 228.07,420.71 224.94,429.18 	"/>
	<polyline class="st4" points="354.52,377.37 356.59,387.53 354.52,400.94 354.52,413.65 359.06,424.82 356.79,432.71 
		361.53,440.47 361.53,452.82 365.41,461.29 370,471.88 360.82,484.24 354.52,498 348.12,511.41 	"/>
	<polyline class="st3" points="365.41,461.29 374.59,469.41 380.94,475.41 383.76,486 391.53,491.65 391.53,500.82 395.76,511.41 
		398.94,523.41 407.06,530.12 	"/>
	<polyline class="st3" points="410.59,147.53 413.76,154.25 418.71,166.59 410.59,174 400.71,186.71 389.06,203.29 385.88,213.88 
		385.88,229.06 389.76,240 389.41,250.57 400.71,256.24 411.65,260.12 409.88,268.84 	"/>
	<path class="st3" d="M296.19,200.15l-9.83-3.56c0,0,1.76-4.94,0-4.94s-12.71,0-12.71,0l-6-7.41h-5.29v-8.82l-7.06-3.18l-2.82-4.59"
		/>
	<polyline class="st3" points="504.12,19.41 518.94,23.29 532.35,25.06 550,25.06 559.88,22.24 564.82,32.47 572.94,32.47 
		579.65,33.88 593.76,38.12 603.29,42.35 609.65,55.06 617.41,67.76 617.41,75.53 609.65,80.47 	"/>
	<path class="st2" d="M503.36,117.83l10.29,7.11l4.24,13.41l-5.29,19.41l-1.97,19.41l7.26,14.47c0,0,3.88,8.47,4.94,9.18
		c1.06,0.71,14.47,2.12,15.53,2.12c1.06,0,8.12-2.47,9.18-2.47s17.29-0.71,19.41-0.71c2.12,0,15.88-3.18,15.88-3.18l13.41,6.35
		l-3.18,9.88l-6.71,6.35l3.88,12.35l9.76,2.12l5.06,12.35l9.88,10.94l11.65,6.71l5.65,5.19l2.82,11.39c0,0,13.76,6,14.82,6
		c1.06,0,10.24,2.82,10.24,2.82l5.29,8.13l9.18,3.87l12.35,4.24"/>
	<polyline class="st4" points="516.68,189.25 516.68,205.41 514.71,222 511.18,235.41 511.18,246.35 516.68,253.44 513.93,271.06 
		513.93,277.76 524.94,285.18 524.94,297.19 531.29,307.06 536.59,310.59 	"/>
	<path class="st3" d="M444.98,451.76l11.49,7.42l6.35,8.82l10.59,11.29l-3.18,16.41l9.53,9.71l10.94,6l12.65,7.41l2.52,8.47
		l9.53,7.41v12l6.71,8.47l10.94,9.18l7.76,6.35l14.12,4.59c0,0,11.29,6.35,12.71,6.35"/>
	<path class="st2" d="M437.41,487.76l12.71,3.88l11.29,12v14.47c0,0,12.35,13.41,14.12,12c1.76-1.41,9.18,2.47,9.18,2.47l2.47,17.65
		l0.35,19.41l6,19.41"/>
	<path class="st9" d="M441.87,499.59l-7.64,15L421.18,540v16.59c0,0-9.53,13.06-11.29,14.47c-1.76,1.41-10.24,21.88-10.24,21.88
		L397.18,612l-7.76,10.94"/>
	<polyline class="st4" points="431.76,312.35 422.59,328.59 415.64,346.94 420.12,352.06 412.71,375.88 393.65,381.88 
		398.94,403.06 383.76,424.82 372.47,437.53 372.47,445.07 356.24,463.76 356.24,477.53 339.27,489.53 	"/>
</g>
<g id="lightning-3" filter="url(#dropshadow)">
	<path class="st1" d="M776.47,76.82l-3.76,10.35L760,91.41l-5.65,15.53v10.89l5.65,12.64l5.41,8.94l7.76,11.29l11.29,3.55
		l2.82,11.51l-4.71,8.47l1.41,10.82l-2.35,12.24l1.88,14.27l0.94,8.32v12.71l-6.12,14.12l-1.88,16.47l10.82,3.29l14.59,4.71v9.88
		l7.06,6.12l14.59,6.12l-5.18,12l-4.24,7.06l-2.35,15.29l-6.59,9.85l-2.35,9.91l-5.18,15.53c0,0-10.35,1.88-8.71,1.88
		c1.65,0,0,16.94,0,16.94l-15.29,8.47l-3.29,28.71l1.88,10.24l-1.88,11.88l-9.41,10.7l-6.59,15.18l-5.18,16v22.12L736.47,514
		l-12.71,12.71L720,547.88l-9.88,16v21.18l9.88,16.47l1.41,13.18"/>
	<polyline class="st4" points="772.71,87.18 768.94,100.35 768.94,112.12 781.65,117.83 793.88,128.59 803.76,134.24 812.71,142.71 
		819.29,147.53 831.53,147.53 842.35,154.25 853.18,154.25 858.82,167.18 858.82,178.94 872,183.65 888,195.41 896.47,202 
		905.41,208.19 912,225.06 912,238.24 917.65,253.44 923.76,262.71 928,276.35 924.71,297.19 928,310.59 935.53,326.71 928,340.35 
		924.71,358.71 928,367.65 938.82,372.82 945.88,377.37 959.06,380.82 959.06,395.88 952.94,404.82 	"/>
	<polyline class="st4" points="819.54,302.54 831.06,302.54 839.06,312.35 846.59,319.65 848.94,333.76 848.94,345.76 
		858.35,348.82 864,350.71 871.53,357.29 878.12,367.18 885.65,376.12 885.65,386.94 885.65,400.94 895.06,412.35 	"/>
	<polyline class="st3" points="928,276.35 939.29,279.65 948.24,287.18 959.06,292.35 967.53,299.88 965.65,322.06 962.35,334.71 
		977.88,349.29 993.88,357.45 992,373.29 987.76,395.88 1006.12,416.12 	"/>
	<polyline class="st3" points="930.37,315.66 921.88,325.29 907.29,341.76 898.82,350.71 889.41,362 895.06,378.94 884.71,409.53 
		887.53,421.76 892.71,436.35 895.06,456.12 889.41,461.29 892.24,475.41 897.88,499.59 	"/>
	<polyline class="st2" points="770.35,441.06 774.59,454.24 782.59,466.47 790.12,484.82 797.65,499.59 800.94,521.53 
		800.94,540.82 800.94,558.71 792.94,577.06 798.12,599.18 800.94,617.53 	"/>
	<polyline class="st4" points="754.35,466.94 736.47,474.47 724.71,481.53 716.24,489.53 710.12,496.12 696,499.59 681.88,496.12 
		672,489.53 	"/>
	<polyline class="st2" points="739.24,512.05 744.94,526.24 752.47,538.41 754.35,548.35 750.59,569.53 754.35,581.65 
		760.47,592.94 770.35,609.53 	"/>
	<polyline class="st3" points="756.53,585.66 752.47,601.06 752.47,612.82 	"/>
	<polyline class="st4" points="710.12,563.88 700.24,578.47 686.94,589.06 679.06,602 674.82,619.41 667.29,626 	"/>
	<polyline class="st3" points="800.94,521.53 814.59,521.53 823.53,525.29 832,532.35 832,540.82 835.29,560.79 841.88,572.35 
		884.71,581.65 892.71,599.24 	"/>
</g>
<g id="lightning-4" filter="url(#dropshadow)">
	<polyline class="st1" points="999.06,253.76 996.71,262.71 1001.88,281.06 1011.29,293.76 1013.65,315.66 1025.88,323.88 
		1037.18,337.5 1053.18,350.24 1055.06,370.94 1061.65,385.06 1069.18,394 1063.06,416.12 1056,442.94 1055.06,466.94 
		1062.59,486.71 1065.41,512.05 1056,534.24 1056,547.88 1066.82,575.65 1060.71,591.18 1069.18,614.71 1082.35,631.18 
		1082.35,645.29 	"/>
	<polyline class="st2" points="1043.75,342.73 1061.18,342.73 1073.88,354.47 1088,369.06 1106.82,384.12 1120,397.29 
		1146.35,402.47 1156.24,404.82 1165.18,416.12 1178.82,427.88 1188.24,443.88 1198.12,443.88 	"/>
	<polyline class="st3" points="1000.56,276.35 996.71,294.71 994.82,310.59 984.47,337.5 984.47,348.35 988.71,369.06 
		996.71,393.31 988.24,412.35 1000.56,428.35 1000.56,441.06 996.71,454.71 1000.56,477.76 994.82,496.12 992.51,516.7 
		992.51,535.65 996.71,552.12 992.51,578 	"/>
	<polyline class="st4" points="1056.37,470.39 1045.65,487.18 1035.76,495.65 1022.12,495.65 1017.88,501.76 1006.12,507.88 
		1006.12,512.05 992.51,516.7 960.94,525.76 959.06,544.12 	"/>
	<path class="st4" d="M1053.65,541.76c-2.82,0-8,13.65-8,13.65l-1.9,9.88l-15.04,4.71l-15.53,1.88l-5.46,6.12l-11.01,10.35
		c0,0,1.88,9.55,0,10.89c-1.88,1.34-12.24,15.46-12.24,15.46"/>
	<polyline class="st2" points="1064.88,507.25 1082.35,516.7 1094.59,529.29 1102.59,539.88 1119.06,544.12 1136.94,547.88 
		1150.12,553.53 1160.47,563.88 1179.76,563.88 	"/>
	<polyline class="st4" points="1065.41,512.05 1073.88,521.53 1082.35,529.29 1086.59,549.76 1082.35,557.76 1084.71,578 
		1086.59,593.06 1086.59,605.29 	"/>
	<polyline class="st4" points="1064.88,605.29 1057.88,612.82 1053.65,622.71 1048.94,629.76 1043.75,637.76 1043.75,649.53 	"/>
</g>
<g id="text-an">
	<g>
		<path class="st4" d="M539.14,243.08l13.57,4.1c-0.91,3.81-2.35,6.98-4.31,9.54c-1.96,2.55-4.39,4.48-7.3,5.78
			s-6.6,1.95-11.09,1.95c-5.45,0-9.9-0.79-13.35-2.37c-3.45-1.58-6.43-4.37-8.94-8.35c-2.51-3.98-3.76-9.09-3.76-15.3
			c0-8.29,2.2-14.66,6.61-19.11c4.41-4.45,10.65-6.68,18.71-6.68c6.31,0,11.27,1.28,14.89,3.83c3.61,2.55,6.29,6.47,8.05,11.76
			l-13.67,3.04c-0.48-1.53-0.98-2.64-1.5-3.35c-0.87-1.18-1.93-2.1-3.18-2.73c-1.25-0.64-2.65-0.96-4.2-0.96
			c-3.51,0-6.2,1.41-8.07,4.23c-1.41,2.09-2.12,5.38-2.12,9.87c0,5.55,0.84,9.36,2.53,11.42c1.69,2.06,4.06,3.09,7.11,3.09
			c2.96,0,5.2-0.83,6.72-2.5C537.36,248.66,538.46,246.25,539.14,243.08z"/>
		<path class="st4" d="M608.22,263.59h-15.45v-37.8h-17.02v37.8H560.3v-50.11h47.92V263.59z"/>
		<path class="st4" d="M618.51,213.48H660v10.7h-25.98v7.96h24.1v10.22h-24.1v9.88h26.73v11.35h-42.25V213.48z"/>
		<path class="st4" d="M722.48,274.49h-12.44v-10.9h-40.88v-50.11h15.45v37.8h17.02v-37.8h15.45v38.55h5.4V274.49z"/>
	</g>
	<g>
		<path class="st4" d="M307.46,297.99c5.57-11.29,15.91-16.94,31.03-16.94c11.23,0,19.87,3,25.91,9c6.04,6,9.06,14.44,9.06,25.34
			c0,11.35-2.98,20.07-8.95,26.14s-14.35,9.11-25.15,9.11c-9.73,0-17.21-1.92-22.44-5.76c-5.23-3.84-8.89-8.82-10.97-14.94
			l19.55-5.28c1.9,6.92,6.26,10.37,13.08,10.37c7.96,0,12.5-4.3,13.63-12.9h-20.29v-12.48h20.38c-1.32-8.66-5.92-12.99-13.82-12.99
			c-6.15,0-10.25,2.82-12.3,8.45L307.46,297.99z"/>
		<path class="st4" d="M446.58,349.49h-20.79v-50.76h-16.25v20.7c0,8.51-0.45,14.76-1.35,18.75c-0.9,3.99-3.01,6.92-6.33,8.79
			c-3.32,1.87-8.68,2.8-16.09,2.8c-2.26,0-4.87-0.25-7.8-0.73V335.4h3.12c2.81,0,4.8-0.62,5.97-1.86c1.16-1.24,1.74-3.51,1.74-6.82
			V282.2h57.79V349.49z"/>
		<path class="st4" d="M460.31,282.2h55.72v14.37h-34.88v10.69h32.36v13.72h-32.36v13.26h35.89v15.24h-56.73V282.2z"/>
		<path class="st4" d="M589.42,349.49H566l-8.11-17.38c-1.92-4.11-3.41-6.68-4.48-7.71c-1.07-1.03-2.54-1.54-4.43-1.54v26.62h-20.75
			V282.2h20.75v25.84c1.8-0.09,3.21-0.73,4.22-1.93s2.58-4.62,4.73-10.28c1.56-4.19,3.14-7.2,4.73-9.02
			c1.59-1.82,4.18-3.13,7.76-3.92c3.58-0.79,9.19-1.19,16.84-1.19v14.23h-1.06c-3.55,0-6.18,0.67-7.89,2.02
			c-1.71,1.35-3.12,3.53-4.22,6.54c-1.1,3.01-2.29,5.26-3.56,6.75s-3.01,2.67-5.21,3.56c3,0.98,5.61,2.67,7.85,5.07
			c2.23,2.4,4.6,6.14,7.11,11.22L589.42,349.49z"/>
		<path class="st4" d="M592.13,282.2h63.2v16.62h-21.21v50.67h-20.79v-50.67h-21.21V282.2z"/>
		<path class="st4" d="M664.65,282.2h34.56c7.53,0,13.17,1.79,16.91,5.37s5.62,8.67,5.62,15.28c0,6.79-2.04,12.1-6.13,15.93
			c-4.09,3.83-10.32,5.74-18.7,5.74h-11.38v24.97h-20.88V282.2z M685.53,310.89h5.09c4.01,0,6.82-0.7,8.45-2.09
			c1.62-1.39,2.43-3.17,2.43-5.35c0-2.11-0.7-3.9-2.11-5.37c-1.41-1.47-4.05-2.2-7.94-2.2h-5.92V310.89z"/>
	</g>
	<g>
		<path class="st4" d="M306.44,360.06h23.45v26.55h25.62v-26.55h23.55v75.88h-23.55v-30.69h-25.62v30.69h-23.45V360.06z"/>
		<path class="st4" d="M441.29,423.41h-26.62l-3.7,12.53h-23.94l28.52-75.88h25.58l28.51,75.88h-24.55L441.29,423.41z M436.42,407
			l-8.38-27.28L419.76,407H436.42z"/>
		<path class="st4" d="M546.8,435.94h-23.45v-57.24h-18.32v23.34c0,9.59-0.51,16.64-1.53,21.14c-1.02,4.5-3.4,7.81-7.14,9.91
			c-3.74,2.11-9.79,3.16-18.14,3.16c-2.55,0-5.49-0.28-8.8-0.83v-15.37h3.52c3.17,0,5.42-0.7,6.73-2.1c1.31-1.4,1.97-3.96,1.97-7.69
			v-50.21h65.16V435.94z"/>
		<path class="st4" d="M608.98,423.41h-26.62l-3.7,12.53h-23.94l28.52-75.88h25.58l28.51,75.88h-24.55L608.98,423.41z M604.12,407
			l-8.38-27.28L587.45,407H604.12z"/>
		<path class="st4" d="M724.39,452.45h-18.89v-16.51h-48.45v16.51h-18.84v-34h7.82c4.38-12.25,6.57-26.07,6.57-41.46v-16.92h63.61
			v58.38h8.18V452.45z M692.76,418.44v-39.75h-18.84v0.98c0,10.49-1.78,23.41-5.33,38.77H692.76z"/>
		<path class="st4" d="M802.59,435.94h-26.41l-9.14-19.59c-2.16-4.63-3.85-7.53-5.05-8.69c-1.2-1.16-2.87-1.74-5-1.74v30.02H733.6
			v-75.88h23.39v29.14c2.04-0.1,3.62-0.83,4.76-2.17s2.92-5.21,5.33-11.59c1.76-4.73,3.54-8.12,5.33-10.17
			c1.79-2.05,4.71-3.53,8.75-4.42c4.04-0.9,10.37-1.35,19-1.35v16.04h-1.19c-4,0-6.97,0.76-8.9,2.28c-1.93,1.52-3.52,3.98-4.76,7.38
			s-2.58,5.93-4.01,7.61c-1.43,1.67-3.39,3.01-5.88,4.01c3.38,1.1,6.33,3.01,8.85,5.72c2.52,2.71,5.19,6.93,8.02,12.66
			L802.59,435.94z"/>
		<path class="st4" d="M857.63,423.41h-26.62l-3.7,12.53h-23.94l28.52-75.88h25.58l28.51,75.88h-24.55L857.63,423.41z M852.76,407
			l-8.38-27.28L836.1,407H852.76z"/>
	</g>
	<g id="gear" style="transform-origin: 66.9% 41.9%;">
		<g>
			<g>
				<path class="st4" d="M865.78,268.25l-9.81-1.66c-1.02-3.3-2.33-6.48-3.94-9.51l5.78-8.08c2.45-3.44,2.07-8.14-0.93-11.12
					l-8.7-8.7c-1.63-1.63-3.79-2.54-6.1-2.54c-1.81,0-3.53,0.55-4.99,1.61l-8.11,5.78c-3.15-1.66-6.45-3.04-9.86-4.06l-1.63-9.69
					c-0.7-4.17-4.29-7.21-8.52-7.21h-12.29c-4.23,0-7.82,3.04-8.52,7.21l-1.69,9.92c-3.27,1.02-6.45,2.36-9.48,4l-8.03-5.78
					c-1.46-1.05-3.21-1.61-5.02-1.61c-2.31,0-4.49,0.9-6.1,2.54l-8.73,8.7c-2.98,2.98-3.39,7.68-0.93,11.12l5.84,8.2
					c-1.61,3.06-2.89,6.25-3.88,9.54l-9.69,1.63c-4.17,0.7-7.21,4.29-7.21,8.52v12.29c0,4.23,3.04,7.82,7.21,8.52l9.92,1.69
					c1.02,3.27,2.36,6.45,4,9.48l-5.75,8c-2.45,3.44-2.07,8.14,0.93,11.12l8.7,8.7c1.63,1.63,3.79,2.54,6.1,2.54
					c1.81,0,3.53-0.55,4.99-1.61l8.2-5.84c2.95,1.55,6.04,2.8,9.22,3.79l1.63,9.81c0.7,4.17,4.29,7.21,8.52,7.21h12.32
					c4.23,0,7.82-3.04,8.52-7.21l1.66-9.81c3.3-1.02,6.48-2.33,9.51-3.94l8.08,5.78c1.46,1.05,3.21,1.61,5.02,1.61l0,0
					c2.31,0,4.47-0.9,6.1-2.54l8.7-8.7c2.98-2.98,3.39-7.68,0.93-11.12l-5.78-8.11c1.61-3.06,2.95-6.25,3.94-9.51l9.81-1.63
					c4.17-0.7,7.21-4.29,7.21-8.52v-12.29C872.99,272.54,869.95,268.95,865.78,268.25z M865.11,289.05c0,0.38-0.26,0.7-0.64,0.76
					l-12.26,2.04c-1.55,0.26-2.77,1.4-3.15,2.89c-1.11,4.29-2.8,8.4-5.08,12.23c-0.79,1.34-0.73,3.01,0.18,4.29l7.21,10.16
					c0.2,0.29,0.18,0.73-0.09,0.99l-8.7,8.7c-0.2,0.2-0.41,0.23-0.55,0.23c-0.18,0-0.32-0.06-0.44-0.15l-10.13-7.21
					c-1.25-0.9-2.95-0.96-4.29-0.18c-3.82,2.28-7.94,3.97-12.23,5.08c-1.52,0.38-2.66,1.63-2.89,3.15l-2.07,12.26
					c-0.06,0.38-0.38,0.64-0.76,0.64h-12.29c-0.38,0-0.7-0.26-0.76-0.64l-2.04-12.26c-0.26-1.55-1.4-2.77-2.89-3.15
					c-4.17-1.08-8.2-2.74-11.97-4.9c-0.61-0.35-1.31-0.53-1.98-0.53c-0.79,0-1.61,0.23-2.28,0.73l-10.21,7.27
					c-0.15,0.09-0.29,0.15-0.44,0.15c-0.12,0-0.35-0.03-0.55-0.23l-8.7-8.7c-0.26-0.26-0.29-0.67-0.09-0.99l7.18-10.07
					c0.9-1.28,0.96-2.98,0.18-4.32c-2.28-3.79-4.03-7.91-5.14-12.2c-0.41-1.49-1.63-2.63-3.15-2.89l-12.34-2.1
					c-0.38-0.06-0.64-0.38-0.64-0.76v-12.29c0-0.38,0.26-0.7,0.64-0.76l12.17-2.04c1.55-0.26,2.8-1.4,3.18-2.92
					c1.08-4.29,2.74-8.43,4.99-12.26c0.79-1.34,0.7-3.01-0.2-4.26l-7.27-10.21c-0.2-0.29-0.18-0.73,0.09-0.99l8.7-8.7
					c0.2-0.2,0.41-0.23,0.55-0.23c0.18,0,0.32,0.06,0.44,0.15l10.07,7.18c1.28,0.9,2.98,0.96,4.32,0.18
					c3.79-2.28,7.91-4.03,12.2-5.14c1.49-0.41,2.63-1.63,2.89-3.15l2.1-12.34c0.06-0.38,0.38-0.64,0.76-0.64h12.29
					c0.38,0,0.7,0.26,0.76,0.64l2.04,12.17c0.26,1.55,1.4,2.8,2.92,3.18c4.41,1.11,8.61,2.83,12.52,5.14
					c1.34,0.79,3.01,0.73,4.29-0.18l10.07-7.24c0.15-0.09,0.29-0.15,0.44-0.15c0.12,0,0.35,0.03,0.55,0.23l8.7,8.7
					c0.26,0.26,0.29,0.67,0.09,0.99l-7.21,10.13c-0.9,1.25-0.96,2.95-0.18,4.29c2.28,3.82,3.97,7.94,5.08,12.23
					c0.38,1.52,1.63,2.66,3.15,2.89l12.26,2.07c0.38,0.06,0.64,0.38,0.64,0.76v12.29H865.11z"/>
				<path class="st4" d="M803.09,252.75c-16.63,0-30.15,13.51-30.15,30.15s13.51,30.15,30.15,30.15s30.15-13.51,30.15-30.15
					S819.73,252.75,803.09,252.75z M803.09,305.16c-12.29,0-22.27-9.98-22.27-22.27s9.98-22.27,22.27-22.27
					c12.29,0,22.27,9.98,22.27,22.27S815.38,305.16,803.09,305.16z"/>
			</g>
		</g>
	</g>
</g>
</svg>
